Coordinates
version=1
nRows=19
nColumns=36
inDegrees=yes

Units are S.I. units (second, meters, Newtons, ...)
If the header above contains a line with 'inDegrees', this indicates whether rotational values are in degrees (yes) or radians (no).

endheader
time	pelvis_tilt	pelvis_list	pelvis_rotation	pelvis_tx	pelvis_ty	pelvis_tz	hip_flexion_r	hip_adduction_r	hip_rotation_r	knee_angle_r	knee_angle_r_beta	ankle_angle_r	subtalar_angle_r	mtp_angle_r	hip_flexion_l	hip_adduction_l	hip_rotation_l	knee_angle_l	knee_angle_l_beta	ankle_angle_l	subtalar_angle_l	mtp_angle_l	lumbar_extension	lumbar_bending	lumbar_rotation	arm_flex_r	arm_add_r	arm_rot_r	elbow_flex_r	pro_sup_r	arm_flex_l	arm_add_l	arm_rot_l	elbow_flex_l	pro_sup_l
      0.32000000	      0.10537268	     -1.57846406	      7.16889312	      0.14360280	      1.04663463	     -0.16204211	      3.61845993	      7.52539207	     -7.88452978	      1.66772082	      0.02910722	     -0.02316022	      5.25068366	     -6.00648014	     23.63682250	     -2.41420422	      1.24420027	     62.51091570	      1.09102130	      1.93917606	    -12.34894747	     -6.00648014	    -11.67039660	      0.63202856	      0.78953809	     -8.19953389	     -5.15689974	    -17.89948146	     41.56824527	    108.50006610	    -10.51651958	     -6.50069258	    -12.74400123	     64.82847440	     96.99615845
      0.33000000	      0.16773331	     -1.37221287	      6.79898667	      0.15680376	      1.04755619	     -0.16191236	      2.59277252	      7.45042807	     -7.31748831	      1.54389014	      0.02694597	      0.62014457	      5.19337504	     -6.03805363	     24.45245057	     -1.99052606	      1.28871385	     60.64704353	      1.05849059	      3.02694802	    -12.33865160	     -6.03805363	    -11.87729280	      0.29663692	      1.60076816	     -7.36571360	     -5.69742899	    -17.74954785	     42.60192316	    108.50232924	    -11.01576368	     -6.00795533	    -12.79778621	     62.67591396	     96.70600054
      0.34000000	      0.11811851	     -1.19147000	      6.49951596	      0.16994215	      1.04809220	     -0.16195877	      1.70960354	      7.36035543	     -6.97265205	      1.43766483	      0.02509198	      1.25442414	      5.31895935	     -6.06248637	     25.31328309	     -1.54349342	      1.42462314	     58.51169202	      1.02122168	      3.83611342	    -12.51902773	     -6.06248637	    -11.95223321	      0.01749172	      2.13698446	     -6.42369999	     -6.20102774	    -17.69063185	     43.62696567	    108.47096694	    -11.69802857	     -5.56191062	    -12.90556555	     60.62438646	     96.43237634
      0.35000000	      0.13735814	     -1.03867454	      6.19921073	      0.18310373	      1.04853803	     -0.16212686	      0.76709179	      7.28045462	     -6.79066711	      1.35713147	      0.02368641	      1.96212102	      5.72650783	     -6.10157685	     25.96652606	     -1.15464338	      1.54239948	     56.03723744	      0.97803430	      4.21479002	    -12.87758367	     -6.10157685	    -12.09854062	     -0.20529224	      2.76903670	     -5.57935267	     -6.77158199	    -17.67056401	     44.76867406	    108.43526910	    -12.25430882	     -5.13003004	    -12.89356140	     58.40063889	     96.16644136
      0.36000000	      0.00361374	     -0.91090535	      5.90753853	      0.19625405	      1.04853846	     -0.16229126	      0.00036715	      7.20951475	     -6.54985287	      1.28410715	      0.02241190	      2.64640770	      5.94477239	     -6.12307134	     26.67899690	     -0.77728785	      1.70936528	     53.31279700	      0.93048384	      4.45373546	    -13.14291697	     -6.12307134	    -12.05135264	     -0.41844989	      3.16137466	     -4.60343051	     -7.24974804	    -17.61258563	     45.83764100	    108.37361099	    -13.01748623	     -4.69672696	    -13.06314056	     56.33505601	     95.90099568
      0.37000000	      0.03589419	     -0.79627404	      5.59705156	      0.20950439	      1.04858609	     -0.16255685	     -0.93174081	      7.13852175	     -6.53769309	      1.24607240	      0.02174807	      3.45561558	      6.63888035	     -6.17779333	     27.04975971	     -0.44728195	      1.83236351	     50.22354543	      0.87656623	      3.83215954	    -14.10311177	     -6.17779333	    -12.19542762	     -0.58359314	      3.82191167	     -3.83064300	     -7.81700316	    -17.62514331	     47.05426315	    108.25833105	    -13.54444446	     -4.31317184	    -12.95319656	     54.05675109	     95.68864958
      0.38000000	     -0.05273815	     -0.75228707	      5.23813772	      0.22278429	      1.04819631	     -0.16268517	     -1.73680953	      7.14310517	     -6.20218789	      1.19609962	      0.02087588	      4.20583061	      6.80570644	     -6.20038478	     27.46270285	     -0.27996736	      1.85028955	     46.97801402	      0.81992102	      3.53954038	    -14.25382978	     -6.20038478	    -12.17966906	     -0.69566281	      4.30849484	     -2.89771491	     -8.36579654	    -17.49169050	     48.11167829	    108.17615779	    -14.23068561	     -3.82975228	    -13.23984953	     51.93144872	     95.42727477
      0.39000000	     -0.03060027	     -0.71258549	      4.85854679	      0.23620898	      1.04775026	     -0.16286384	     -2.66866097	      7.13609106	     -6.02557975	      1.14592358	      0.02000014	      4.97020182	      7.35894620	     -6.25132944	     27.61285467	     -0.12544081	      1.84351969	     43.44447902	      0.75824920	      2.45581573	    -15.22881618	     -6.25132944	    -12.28845814	     -0.79098290	      4.93685259	     -2.10836415	     -8.95423435	    -17.38661406	     49.30870688	    108.02771542	    -14.82723926	     -3.45388153	    -13.23816012	     49.73818931	     95.27622373
      0.40000000	     -0.07703772	     -0.75141094	      4.42200143	      0.24972186	      1.04691891	     -0.16286393	     -3.52865126	      7.21327349	     -5.58176867	      1.11118884	      0.01939390	      5.76111743	      7.51713179	     -6.27532160	     27.77713634	     -0.16675091	      1.64929401	     39.85290566	      0.69556442	      1.92104515	    -15.12617939	     -6.27532160	    -12.29115409	     -0.83040489	      5.50504511	     -1.23278674	     -9.52955677	    -17.16903846	     50.37336307	    107.93548231	    -15.52364059	     -2.99836109	    -13.56136039	     47.67291174	     95.05652356
      0.41000000	     -0.09142338	     -0.79874101	      4.00764893	      0.26338520	      1.04588540	     -0.16302186	     -4.43094070	      7.27096204	     -5.27007339	      1.06325435	      0.01855729	      6.52141530	      7.95125224	     -6.33186685	     27.79085377	     -0.18718280	      1.46499875	     36.07683974	      0.62965964	      1.00208393	    -15.43949609	     -6.33186685	    -12.32669686	     -0.82983702	      6.08592275	     -0.44377670	    -10.11171476	    -16.96163833	     51.55955231	    107.74089014	    -16.20990989	     -2.60520681	    -13.63002468	     45.62464334	     95.03507089
      0.42000000	     -0.32339466	     -0.96583031	      3.59300608	      0.27702802	      1.04421909	     -0.16306775	     -5.08121647	      7.44775456	     -4.71709077	      1.04754662	      0.01828314	      7.18912014	      8.06387884	     -6.34583764	     28.04901009	     -0.37619508	      1.20375561	     32.38841341	      0.56528445	      0.78780537	    -14.62619687	     -6.34583764	    -12.10247727	     -0.74109426	      6.49984182	      0.45048130	    -10.63031172	    -16.73913927	     52.63747196	    107.65643761	    -17.13098733	     -2.16593216	    -13.91122777	     44.02694982	     94.85525226
      0.43000000	     -0.25371965	     -1.05179929	      3.15969481	      0.29097834	      1.04278745	     -0.16319082	     -6.10245398	      7.54384686	     -4.31403404	      0.99845558	      0.01742634	      8.02092861	      8.12273039	     -6.36574825	     27.83259263	     -0.53908685	      0.67285739	     28.53379285	      0.49800863	      0.50461712	    -13.63735054	     -6.36574825	    -12.19139745	     -0.70875846	      7.06285662	      1.21515942	    -11.23951364	    -16.28284990	     53.71514395	    107.58326086	    -17.76053613	     -1.72649060	    -14.27320279	     41.97037086	     94.70586898
      0.44000000	     -0.25254723	     -1.23871661	      2.79968046	      0.30496807	      1.04094831	     -0.16348954	     -7.01811983	      7.71974705	     -3.98031993	      1.00324460	      0.01750992	      8.72408946	      8.38409620	     -6.39486525	     27.67460604	     -0.73971343	      0.27384386	     24.75690236	      0.43208946	      0.51811423	    -12.26795225	     -6.39486525	    -12.19221623	     -0.55209800	      7.46511134	      1.99943864	    -11.83117765	    -15.85403181	     54.82790603	    107.49011223	    -18.53444703	     -1.29525457	    -14.47555978	     40.14721640	     94.75130890
      0.45000000	     -0.33507698	     -1.44461000	      2.45978778	      0.31896367	      1.03876327	     -0.16384422	     -7.81911466	      7.90709115	     -3.68574828	      1.04121309	      0.01817260	      9.44583507	      8.56063965	     -6.42386571	     27.56328265	     -0.93189099	     -0.10180462	     21.03591216	      0.36714593	      0.72169643	    -10.40431735	     -6.42386571	    -12.10883401	     -0.37438192	      7.79561413	      2.80669075	    -12.36525328	    -15.41077776	     55.94750101	    107.41928619	    -19.35522384	     -0.90063285	    -14.71930239	     38.50520375	     94.87534665
      0.46000000	     -0.41821162	     -1.66787950	      2.17651479	      0.33311999	      1.03635791	     -0.16436783	     -8.60932767	      8.10136664	     -3.45192419	      1.12174111	      0.01957808	     10.16159311	      8.66826526	     -6.44844597	     27.41309410	     -1.10116641	     -0.46720062	     17.41371729	      0.30392670	      0.98693589	     -8.29783594	     -6.44844597	    -12.00295138	     -0.16555156	      8.06011531	      3.56282562	    -12.89829146	    -14.94529360	     57.05395061	    107.37458522	    -20.20540564	     -0.47726443	    -14.99674195	     36.97540112	     94.98633067
      0.47000000	     -0.46626098	     -1.90803120	      1.91043808	      0.34737500	      1.03381976	     -0.16499643	     -9.41826332	      8.29534649	     -3.26774317	      1.24506180	      0.02173043	     10.80527536	      8.84038486	     -6.47401357	     27.21281829	     -1.26977908	     -0.88188714	     13.97452490	      0.24390147	      1.36527226	     -6.02468807	     -6.47401357	    -11.92327772	      0.07728254	      8.26008738	      4.30754672	    -13.40594474	    -14.44562385	     58.16753859	    107.36530786	    -21.08035859	     -0.04655637	    -15.27628648	     35.53968455	     95.16080641
      0.48000000	     -0.64616327	     -2.16148904	      1.70292506	      0.36175774	      1.03097667	     -0.16578941	    -10.06693028	      8.49467980	     -3.12250165	      1.40934290	      0.02459767	     11.49235544	      8.90669942	     -6.49039519	     27.12528912	     -1.38200591	     -1.12458676	     10.70039236	      0.18675708	      1.54569687	     -3.98394233	     -6.49039519	    -11.66773878	      0.33197297	      8.47165025	      4.91876370	    -13.90210811	    -14.02383174	     59.22114157	    107.37199039	    -22.00819189	      0.34912362	    -15.53224810	     34.36861466	     95.21899941
      0.49000000	     -0.85294426	     -2.44821468	      1.40897696	      0.37617321	      1.02805927	     -0.16654798	    -10.60055329	      8.68408904	     -2.86640042	      1.74023050	      0.03037275	     11.91219989	      9.07138000	     -6.50071379	     27.07147438	     -1.54319278	     -1.48537701	      7.73708375	      0.13503759	      1.78229249	     -2.35995303	     -6.50071379	    -11.39805138	      0.63203941	      8.59969161	      5.60644931	    -14.25528814	    -13.68525237	     60.36316496	    107.39633812	    -23.03775202	      0.77393567	    -15.71563072	     33.36341744	     95.21025514
      0.50000000	     -0.59900217	     -2.57571040	      1.15287243	      0.39121822	      1.02578460	     -0.16744179	    -11.67929708	      8.68776867	     -3.12582515	      2.02952915	      0.03542197	     12.63920298	      9.74475588	     -6.54438718	     26.50990637	     -1.58433622	     -2.63338456	      5.13559141	      0.08963298	      2.44160856	      0.40917175	     -6.54438718	    -11.59473397	      0.76286055	      8.86819648	      6.07193426	    -14.79060708	    -13.09504987	     61.47273771	    107.52800201	    -23.80757523	      1.12742414	    -16.01064498	     32.03594822	     95.68801914
